<svg xmlns="http://www.w3.org/2000/svg" viewBox="0 0 128 128">
  <rect x="16" y="16" width="96" height="96" rx="20" fill="#181717"/>
  <path d="M64 30c-16 0-30 13-30 30 0 13 8 24 19 28 1 0 1-1 1-2-1-2-2-6-2-8-7 1-9-3-9-3-1-3-3-5-3-5-2-2 0-2 0-2 2 0 4 1 6 2 2 1 4 3 6 3 1 0 2-1 2-3 0-2 0-4 0-6-4 0-8-2-8-7 0-3 2-6 5-7 0 0 4 0 8 4 2-1 5-2 8-2 3 0 6 1 9 2 4-4 8-4 8-4 3 1 5 4 5 7 0 5-4 7-8 7 0 2 0 4 0 6 0 2 1 3 2 3 1 0 4-2 6-3 2-1 4-2 6-2 0 0 2 0 0 2 0 0-2 2-3 5 0 0-2 4-9 3 0 2-1 6-2 8 0 1 0 2 1 2 11-4 19-15 19-28 0-17-14-30-30-30z" fill="#fff"/>
</svg>